<svg width="32" height="21" viewBox="0 0 32 21" fill="none" xmlns="http://www.w3.org/2000/svg">
<g filter="url(#filter0_ii_112_274)">
<path d="M31.5608 14.8224C31.5608 14.8224 0.802635 15.8752 0.794352 15.3474C0.789266 15.0232 1.00551 12.7329 1.74449 10.524C2.72863 7.86722 3.73019 6.32134 4.73831 5.19295C5.74643 4.06456 7.28297 2.76408 9.80808 1.41048C10.8253 0.865164 13.9121 0.117611 16.9712 0.287466C20.9104 0.506185 23.9451 1.46527 26.7793 4.28888C28.3425 5.84619 29.4005 7.46996 30.4599 10.034C31.1905 11.8023 31.5608 14.8224 31.5608 14.8224Z" fill="#ED5564"/>
</g>
<path d="M31.5608 14.8224C31.5608 14.8224 0.802635 15.8752 0.794352 15.3474C0.789266 15.0232 1.00551 12.7329 1.74449 10.524C2.72863 7.86722 3.73019 6.32134 4.73831 5.19295C5.74643 4.06456 7.28297 2.76408 9.80808 1.41048C10.8253 0.865164 13.9121 0.117611 16.9712 0.287466C20.9104 0.506185 23.9451 1.46527 26.7793 4.28888C28.3425 5.84619 29.4005 7.46996 30.4599 10.034C31.1905 11.8023 31.5608 14.8224 31.5608 14.8224Z" stroke="black" stroke-width="0.5"/>
<ellipse cx="5.055" cy="5.05355" rx="5.055" ry="5.05355" transform="matrix(0.999868 -0.0162736 0.0164477 0.999865 11 10.1645)" fill="#555555"/>
<ellipse cx="2.6868" cy="2.685" rx="2.6868" ry="2.685" transform="matrix(0.999868 -0.0162736 0.0164477 0.999865 13.4075 12.6466)" fill="#D9D9D9"/>
<defs>
<filter id="filter0_ii_112_274" x="0.544189" y="0.0129013" width="31.2981" height="15.7326" filterUnits="userSpaceOnUse" color-interpolation-filters="sRGB">
<feFlood flood-opacity="0" result="BackgroundImageFix"/>
<feBlend mode="normal" in="SourceGraphic" in2="BackgroundImageFix" result="shape"/>
<feColorMatrix in="SourceAlpha" type="matrix" values="0 0 0 0 0 0 0 0 0 0 0 0 0 0 0 0 0 0 127 0" result="hardAlpha"/>
<feOffset dx="2"/>
<feComposite in2="hardAlpha" operator="arithmetic" k2="-1" k3="1"/>
<feColorMatrix type="matrix" values="0 0 0 0 0 0 0 0 0 0 0 0 0 0 0 0 0 0 0.12 0"/>
<feBlend mode="normal" in2="shape" result="effect1_innerShadow_112_274"/>
<feColorMatrix in="SourceAlpha" type="matrix" values="0 0 0 0 0 0 0 0 0 0 0 0 0 0 0 0 0 0 127 0" result="hardAlpha"/>
<feOffset dx="-1"/>
<feComposite in2="hardAlpha" operator="arithmetic" k2="-1" k3="1"/>
<feColorMatrix type="matrix" values="0 0 0 0 1 0 0 0 0 1 0 0 0 0 1 0 0 0 0.22 0"/>
<feBlend mode="normal" in2="effect1_innerShadow_112_274" result="effect2_innerShadow_112_274"/>
</filter>
</defs>
</svg>
