<svg width="997" height="467" viewBox="0 0 997 467" fill="none" xmlns="http://www.w3.org/2000/svg">
<g filter="url(#filter0_i_1_74)">
<path d="M995.921 21.6693C968.06 271.759 755.955 466.218 498.431 466.218C240.8 466.218 28.6238 271.579 0.904455 21.3379C-0.370619 9.82693 8.82903 0.0032959 20.4104 0.00714111L976.429 0.326569C988.01 0.330444 997.203 10.1595 995.921 21.6693Z" fill="#F8F8F8"/>
</g>
<path d="M498.431 456.218C750.803 456.218 958.68 265.646 985.982 20.5622C986.573 15.2542 982.331 10.3286 976.426 10.3266L20.407 10.0071C14.502 10.0052 10.2556 14.9284 10.8437 20.2369C38.0082 265.469 245.954 456.218 498.431 456.218Z" stroke="#252525" stroke-width="20"/>
<defs>
<filter id="filter0_i_1_74" x="0.786133" y="0.00708008" width="995.254" height="466.211" filterUnits="userSpaceOnUse" color-interpolation-filters="sRGB">
<feFlood flood-opacity="0" result="BackgroundImageFix"/>
<feBlend mode="normal" in="SourceGraphic" in2="BackgroundImageFix" result="shape"/>
<feColorMatrix in="SourceAlpha" type="matrix" values="0 0 0 0 0 0 0 0 0 0 0 0 0 0 0 0 0 0 127 0" result="hardAlpha"/>
<feOffset dx="-150" dy="-50"/>
<feComposite in2="hardAlpha" operator="arithmetic" k2="-1" k3="1"/>
<feColorMatrix type="matrix" values="0 0 0 0 0 0 0 0 0 0 0 0 0 0 0 0 0 0 0.25 0"/>
<feBlend mode="normal" in2="shape" result="effect1_innerShadow_1_74"/>
</filter>
</defs>
</svg>
