<svg width="32" height="16" viewBox="0 0 32 16" fill="none" xmlns="http://www.w3.org/2000/svg">
<g filter="url(#filter0_ii_112_270)">
<path d="M0.867326 1.24567C0.867326 1.24567 31.6135 0.178646 31.6255 0.672539C31.6328 0.975823 31.4327 3.11942 30.7093 5.18831C29.7439 7.67688 28.7533 9.12603 27.7533 10.1845C26.7532 11.2431 25.226 12.464 22.7108 13.7373C21.6975 14.2503 18.6165 14.958 15.5566 14.8072C11.6165 14.613 8.57552 13.7237 5.72193 11.0892C4.14808 9.63616 3.07891 8.11962 2.00168 5.72323C1.25881 4.07063 0.867326 1.24567 0.867326 1.24567Z" fill="#E6E9ED"/>
</g>
<path d="M0.867326 1.24567C0.867326 1.24567 31.6135 0.178646 31.6255 0.672539C31.6328 0.975823 31.4327 3.11942 30.7093 5.18831C29.7439 7.67688 28.7533 9.12603 27.7533 10.1845C26.7532 11.2431 25.226 12.464 22.7108 13.7373C21.6975 14.2503 18.6165 14.958 15.5566 14.8072C11.6165 14.613 8.57552 13.7237 5.72193 11.0892C4.14808 9.63616 3.07891 8.11962 2.00168 5.72323C1.25881 4.07063 0.867326 1.24567 0.867326 1.24567Z" stroke="black" stroke-width="0.5"/>
<defs>
<filter id="filter0_ii_112_270" x="0.581787" y="0.292061" width="31.2939" height="14.7858" filterUnits="userSpaceOnUse" color-interpolation-filters="sRGB">
<feFlood flood-opacity="0" result="BackgroundImageFix"/>
<feBlend mode="normal" in="SourceGraphic" in2="BackgroundImageFix" result="shape"/>
<feColorMatrix in="SourceAlpha" type="matrix" values="0 0 0 0 0 0 0 0 0 0 0 0 0 0 0 0 0 0 127 0" result="hardAlpha"/>
<feOffset dx="2"/>
<feComposite in2="hardAlpha" operator="arithmetic" k2="-1" k3="1"/>
<feColorMatrix type="matrix" values="0 0 0 0 0 0 0 0 0 0 0 0 0 0 0 0 0 0 0.12 0"/>
<feBlend mode="normal" in2="shape" result="effect1_innerShadow_112_270"/>
<feColorMatrix in="SourceAlpha" type="matrix" values="0 0 0 0 0 0 0 0 0 0 0 0 0 0 0 0 0 0 127 0" result="hardAlpha"/>
<feOffset dx="-1"/>
<feComposite in2="hardAlpha" operator="arithmetic" k2="-1" k3="1"/>
<feColorMatrix type="matrix" values="0 0 0 0 1 0 0 0 0 1 0 0 0 0 1 0 0 0 0.22 0"/>
<feBlend mode="normal" in2="effect1_innerShadow_112_270" result="effect2_innerShadow_112_270"/>
</filter>
</defs>
</svg>
